<svg width="62" height="52" viewBox="0 0 62 52" fill="none" xmlns="http://www.w3.org/2000/svg">
<path d="M27.1109 4.94151C27.0674 3.9412 27.0167 2.74084 26.1393 1.69386C24.7617 0.0533553 22.3762 0 21.905 0C20.5636 0.0066687 18.3666 0.0200118 16.9673 0.0266805C14.4005 0.0400179 13.1244 0.0466858 12.8199 0.0466858C10.0139 0.0333484 9.13657 0.0466858 7.1499 0.0466858C5.32274 0.0466858 4.39465 0.0600228 3.40132 0.473482C1.69741 1.1737 0.762082 2.56078 0.29079 3.44105C0.116775 4.09458 -0.0644915 5.06821 0.0225162 6.2219C0.218284 8.90939 1.69741 10.7633 3.12579 12.6772C4.82969 14.9646 6.27257 17.412 7.96922 19.7127C13.3274 26.9816 13.1824 27.7418 17.3806 33.1034C18.7509 34.8573 20.6506 37.1847 23.0651 39.8455C23.2971 40.1256 23.8119 40.5524 24.5587 40.9592C25.1822 41.2993 25.8928 41.5193 26.5961 41.3526C26.5961 41.3526 27.0892 41.2393 27.5315 40.8725C29.4311 39.3053 35.8262 25.8612 36.7035 24.0073L43.4684 11.1501C42.591 10.7633 41.7065 10.3698 40.8291 9.98305C41.1989 9.78965 41.5614 9.59626 41.9312 9.40287C44.9475 7.81572 47.9565 6.22857 50.9728 4.64809C52.1111 7.66234 53.2567 10.6766 54.3951 13.6908C53.5323 13.4241 52.6622 13.1573 51.7994 12.8906L32.0631 49.5218C32.0486 49.7552 32.0631 50.1086 32.2371 50.4754C32.7519 51.5891 34.2891 52.0492 35.4347 51.9959C36.9935 51.9292 37.9724 50.9089 38.1754 50.6821C49.5154 28.7421 54.2138 20.0194 55.9177 17.1852C56.9401 15.4781 57.9697 13.7642 58.905 12.0103C59.8403 10.2498 60.7756 8.49593 61.711 6.73539C61.856 6.40196 62.2258 5.41499 61.8052 4.36134C61.2687 3.01426 59.659 2.10731 57.8029 2.16066C55.8742 2.14066 53.8585 2.16067 51.7486 2.24736C49.8127 2.32071 47.9493 2.44075 46.1729 2.58746C45.9988 2.58746 45.7451 2.57412 45.4405 2.58746C45.4405 2.58746 43.1638 2.66748 40.9886 3.68779C39.0237 4.60807 38.1464 7.30223 34.6806 14.5578C33.0347 18.0188 31.9906 19.9994 30.3012 23.7206C30.1634 24.0273 29.8662 24.6542 29.7646 24.8609C27.72 29.2356 27.0819 30.7694 25.668 31.3296C24.9865 31.603 24.4789 31.5096 24.3629 31.4896C23.5581 31.3296 23.0941 30.7027 22.949 30.4693C18.2361 23.3271 13.5232 16.1849 8.81029 9.04276C8.37526 8.38256 7.94747 7.72236 7.51243 7.06216C7.36742 6.62203 7.1354 5.70174 7.64294 5.18825C8.04898 4.78146 8.75229 4.82147 9.02056 4.83481C10.6157 4.9215 14.3788 4.95484 19.505 5.00153C21.0711 5.20826 22.0862 5.70841 22.7025 6.10187C24.74 7.3956 26.1176 9.83633 26.1176 9.83633C25.6825 11.4435 27.1617 6.60202 27.0892 4.94151H27.1109Z" fill="url(#paint0_linear_351_71)"/>
<defs>
<linearGradient id="paint0_linear_351_71" x1="0.983782" y1="26.8024" x2="62.8633" y2="23.9237" gradientUnits="userSpaceOnUse">
<stop offset="0.06" stop-color="#00B4E4"/>
<stop offset="0.18" stop-color="#697EBE"/>
<stop offset="0.31" stop-color="#3B56A6"/>
<stop offset="0.47" stop-color="#3A55A5"/>
<stop offset="0.62" stop-color="#4C57A6"/>
<stop offset="0.78" stop-color="#222D60"/>
<stop offset="0.92" stop-color="#112649"/>
</linearGradient>
</defs>
</svg>
